<svg xmlns="http://www.w3.org/2000/svg" viewBox="0 0 128 96" fill="none">
  <g transform="translate(7 22) rotate(-20 21 21)">
    <path d="M3 37C6 18 18 6 40 3c2 19-8 33-33 43Z" fill="#f4a4ba" stroke="#9f2748" stroke-width="2.2" stroke-linejoin="round"/>
    <path d="M8 40C17 27 27 15 39 5" stroke="#c64264" stroke-width="1.7" stroke-linecap="round"/>
  </g>
  <g transform="translate(59 6) rotate(32 20 20)">
    <path d="M3 36C6 18 17 6 38 3c2 18-8 32-31 42Z" fill="#ed7293" stroke="#9f2748" stroke-width="2.1" stroke-linejoin="round"/>
    <path d="M8 39C16 26 26 15 37 5" stroke="#b93255" stroke-width="1.7" stroke-linecap="round"/>
  </g>
  <g transform="translate(77 51) rotate(-8 19 19) scale(.86)">
    <path d="M3 37C6 18 18 6 40 3c2 19-8 33-33 43Z" fill="#f8c7d3" stroke="#9f2748" stroke-width="2.4" stroke-linejoin="round"/>
    <path d="M8 40C17 27 27 15 39 5" stroke="#c64264" stroke-width="1.9" stroke-linecap="round"/>
  </g>
  <circle cx="20" cy="82" r="3" fill="#165ad8"/>
  <circle cx="62" cy="72" r="2.5" fill="#165ad8"/>
</svg>
